<svg width="100" height="90" viewBox="0 0 100 90" fill="none" xmlns="http://www.w3.org/2000/svg">
<path fill-rule="evenodd" clip-rule="evenodd" d="M50 78.75C70.7107 78.75 87.5 63.6396 87.5 45C87.5 26.3604 70.7107 11.25 50 11.25C29.2893 11.25 12.5 26.3604 12.5 45C12.5 63.6396 29.2893 78.75 50 78.75ZM67.4004 34.4294C67.7757 34.0242 67.7513 33.3915 67.3461 33.0162C66.9408 32.641 66.3081 32.6653 65.9329 33.0706L46.4393 54.1237C46.1041 54.4857 45.919 54.6825 45.7733 54.803L45.7676 54.8076L45.7616 54.8036C45.6055 54.6968 45.4033 54.5176 45.0366 54.1876L34.0023 44.2567C33.5918 43.8872 32.9595 43.9205 32.59 44.331C32.2206 44.7415 32.2539 45.3738 32.6644 45.7433L43.6987 55.6741L43.7387 55.7102L43.7387 55.7102C44.0497 55.9902 44.3524 56.2627 44.6325 56.4543C44.9486 56.6705 45.3528 56.8682 45.8604 56.8451C46.368 56.8219 46.7526 56.5884 47.0478 56.3443C47.3093 56.1281 47.5859 55.8292 47.8702 55.5221L47.8702 55.5221L47.9068 55.4825L67.4004 34.4294Z" fill="#F5F5F5"/>
<path d="M67.3461 33.0162L68.3652 31.9156L68.3652 31.9156L67.3461 33.0162ZM67.4004 34.4294L68.5011 35.4485L68.5011 35.4485L67.4004 34.4294ZM65.9329 33.0706L67.0335 34.0897L67.0336 34.0897L65.9329 33.0706ZM46.4393 54.1237L47.54 55.1428L46.4393 54.1237ZM45.7733 54.803L46.7261 55.9615L46.7291 55.959L45.7733 54.803ZM45.7676 54.8076L44.9242 56.048L45.853 56.6796L46.7205 55.9661L45.7676 54.8076ZM45.7616 54.8036L44.9148 56.0416L44.9182 56.0439L45.7616 54.8036ZM45.0366 54.1876L46.04 53.0726L45.0366 54.1876ZM34.0023 44.2567L32.9989 45.3716H32.9989L34.0023 44.2567ZM32.59 44.331L33.705 45.3345L33.705 45.3345L32.59 44.331ZM32.6644 45.7433L33.6678 44.6284L33.6678 44.6283L32.6644 45.7433ZM43.6987 55.6741L44.7023 54.5594L44.7021 54.5592L43.6987 55.6741ZM43.7387 55.7102L44.7993 54.6495L44.7715 54.6217L44.7423 54.5954L43.7387 55.7102ZM43.7387 55.7102L42.6781 56.7709L42.7059 56.7987L42.7351 56.825L43.7387 55.7102ZM44.6325 56.4543L43.7857 57.6924L43.7857 57.6924L44.6325 56.4543ZM45.8604 56.8451L45.9287 58.3435H45.9287L45.8604 56.8451ZM47.0478 56.3443L48.0036 57.5003L48.0036 57.5003L47.0478 56.3443ZM47.8702 55.5221L48.971 56.541L49.0077 56.5014L49.0415 56.4592L47.8702 55.5221ZM47.8702 55.5221L46.7694 54.5031L46.7327 54.5428L46.6989 54.585L47.8702 55.5221ZM47.9068 55.4825L46.8062 54.4634L46.806 54.4635L47.9068 55.4825ZM86 45C86 62.6664 70.0348 77.25 50 77.25V80.25C71.3865 80.25 89 64.6128 89 45H86ZM50 12.75C70.0348 12.75 86 27.3336 86 45H89C89 25.3872 71.3865 9.75 50 9.75V12.75ZM14 45C14 27.3336 29.9652 12.75 50 12.75V9.75C28.6135 9.75 11 25.3872 11 45H14ZM50 77.25C29.9652 77.25 14 62.6664 14 45H11C11 64.6128 28.6135 80.25 50 80.25V77.25ZM66.327 34.1169C66.1243 33.9293 66.1122 33.6129 66.2998 33.4103L68.5011 35.4485C69.4391 34.4354 69.3783 32.8537 68.3652 31.9156L66.327 34.1169ZM67.0336 34.0897C66.8459 34.2923 66.5296 34.3045 66.327 34.1169L68.3652 31.9156C67.3521 30.9775 65.7703 31.0384 64.8323 32.0515L67.0336 34.0897ZM47.54 55.1428L67.0335 34.0897L64.8323 32.0515L45.3387 53.1046L47.54 55.1428ZM46.7291 55.959C46.9708 55.7591 47.2359 55.4712 47.54 55.1428L45.3387 53.1046C44.9723 53.5002 44.8673 53.6058 44.8174 53.6471L46.7291 55.959ZM46.7205 55.9661L46.7261 55.9615L44.8204 53.6445L44.8148 53.6491L46.7205 55.9661ZM44.9182 56.0439L44.9242 56.048L46.6111 53.5672L46.6051 53.5632L44.9182 56.0439ZM44.0331 55.3025C44.3658 55.6019 44.6559 55.8646 44.9148 56.0416L46.6085 53.5655C46.555 53.5289 46.4409 53.4334 46.04 53.0726L44.0331 55.3025ZM32.9989 45.3716L44.0331 55.3025L46.04 53.0726L35.0057 43.1418L32.9989 45.3716ZM33.705 45.3345C33.5203 45.5397 33.2041 45.5564 32.9989 45.3716L35.0058 43.1418C33.9795 42.2181 32.3987 42.3013 31.4751 43.3276L33.705 45.3345ZM33.6678 44.6283C33.8731 44.8131 33.8897 45.1292 33.705 45.3345L31.4751 43.3276C30.5515 44.3539 30.6346 45.9346 31.6609 46.8582L33.6678 44.6283ZM44.7021 54.5592L33.6678 44.6284L31.6609 46.8582L42.6952 56.7891L44.7021 54.5592ZM44.7423 54.5954L44.7023 54.5594L42.695 56.7889L42.735 56.825L44.7423 54.5954ZM44.7994 54.6496L44.7993 54.6495L42.678 56.7708L42.6781 56.7709L44.7994 54.6496ZM45.4794 55.2163C45.299 55.0929 45.0763 54.8961 44.7424 54.5955L42.7351 56.825C43.0231 57.0843 43.4058 57.4326 43.7857 57.6924L45.4794 55.2163ZM45.7922 55.3466C45.7576 55.3482 45.7257 55.3436 45.6833 55.3283C45.6349 55.3109 45.5696 55.278 45.4794 55.2163L43.7857 57.6924C44.2385 58.0022 44.966 58.3874 45.9287 58.3435L45.7922 55.3466ZM46.0919 55.1884C46.0076 55.258 45.9456 55.2967 45.8989 55.3185C45.8582 55.3376 45.8267 55.345 45.7922 55.3466L45.9287 58.3435C46.8914 58.2997 47.5808 57.8499 48.0036 57.5003L46.0919 55.1884ZM46.7693 54.5032C46.4642 54.8329 46.2603 55.0491 46.0919 55.1884L48.0036 57.5003C48.3584 57.207 48.7077 56.8255 48.971 56.541L46.7693 54.5032ZM46.6989 54.585L46.6989 54.5851L49.0415 56.4592L49.0415 56.4591L46.6989 54.585ZM46.806 54.4635L46.7694 54.5031L48.971 56.541L49.0076 56.5014L46.806 54.4635ZM66.2998 33.4103L46.8062 54.4634L49.0075 56.5016L68.5011 35.4485L66.2998 33.4103Z" fill="#219C3C" fill-opacity="0.78"/>
</svg>
