<svg width="100" height="90" viewBox="0 0 100 90" fill="none" xmlns="http://www.w3.org/2000/svg">
<path fill-rule="evenodd" clip-rule="evenodd" d="M87.5 45.6989C87.5 64.628 70.7107 79.9731 50 79.9731C29.2893 79.9731 12.5 64.628 12.5 45.6989C12.5 26.7698 29.2893 11.4247 50 11.4247C70.7107 11.4247 87.5 26.7698 87.5 45.6989ZM31.857 60.9319L32.5952 60.2573L48.5237 45.6989L32.5952 31.1406L31.857 30.4659L33.3333 29.1167L34.0715 29.7913L50 44.3496L65.9285 29.7913L66.6667 29.1167L68.143 30.4659L67.4048 31.1406L51.4763 45.6989L67.4048 60.2573L68.143 60.9319L66.6667 62.2812L65.9285 61.6065L50 47.0482L34.0715 61.6065L33.3333 62.2812L31.857 60.9319Z" fill="white"/>
<path d="M32.5952 60.2573L33.6072 61.3645L33.6072 61.3645L32.5952 60.2573ZM31.857 60.9319L30.8451 59.8247L29.6337 60.9319L30.8451 62.0391L31.857 60.9319ZM48.5237 45.6989L49.5357 46.8061L50.7471 45.6989L49.5357 44.5917L48.5237 45.6989ZM32.5952 31.1406L31.5832 32.2478L31.5832 32.2478L32.5952 31.1406ZM31.857 30.4659L30.8451 29.3587L29.6337 30.4659L30.8451 31.5732L31.857 30.4659ZM33.3333 29.1167L34.3453 28.0094L33.3333 27.0845L32.3214 28.0094L33.3333 29.1167ZM34.0715 29.7913L33.0595 30.8985L33.0595 30.8985L34.0715 29.7913ZM50 44.3496L48.988 45.4568L50 46.3818L51.012 45.4568L50 44.3496ZM65.9285 29.7913L66.9405 30.8985L66.9405 30.8985L65.9285 29.7913ZM66.6667 29.1167L67.6786 28.0094L66.6667 27.0845L65.6547 28.0094L66.6667 29.1167ZM68.143 30.4659L69.1549 31.5732L70.3663 30.4659L69.1549 29.3587L68.143 30.4659ZM67.4048 31.1406L68.4168 32.2478L68.4168 32.2478L67.4048 31.1406ZM51.4763 45.6989L50.4643 44.5917L49.2529 45.6989L50.4643 46.8061L51.4763 45.6989ZM67.4048 60.2573L66.3928 61.3645L66.3928 61.3645L67.4048 60.2573ZM68.143 60.9319L69.1549 62.0391L70.3663 60.9319L69.1549 59.8247L68.143 60.9319ZM66.6667 62.2812L65.6547 63.3884L66.6667 64.3133L67.6786 63.3884L66.6667 62.2812ZM65.9285 61.6065L66.9405 60.4993L66.9405 60.4993L65.9285 61.6065ZM50 47.0482L51.012 45.941L50 45.0161L48.988 45.941L50 47.0482ZM34.0715 61.6065L33.0595 60.4993L33.0595 60.4993L34.0715 61.6065ZM33.3333 62.2812L32.3214 63.3884L33.3333 64.3133L34.3453 63.3884L33.3333 62.2812ZM50 81.4731C71.4093 81.4731 89 65.5806 89 45.6989H86C86 63.6755 70.0121 78.4731 50 78.4731V81.4731ZM11 45.6989C11 65.5806 28.5907 81.4731 50 81.4731V78.4731C29.9879 78.4731 14 63.6755 14 45.6989H11ZM50 9.92473C28.5907 9.92473 11 25.8172 11 45.6989H14C14 27.7224 29.9879 12.9247 50 12.9247V9.92473ZM89 45.6989C89 25.8172 71.4093 9.92473 50 9.92473V12.9247C70.0121 12.9247 86 27.7224 86 45.6989H89ZM31.5832 59.15L30.8451 59.8247L32.869 62.0391L33.6072 61.3645L31.5832 59.15ZM47.5118 44.5917L31.5832 59.15L33.6072 61.3645L49.5357 46.8061L47.5118 44.5917ZM31.5832 32.2478L47.5118 46.8061L49.5357 44.5917L33.6072 30.0334L31.5832 32.2478ZM30.8451 31.5732L31.5832 32.2478L33.6072 30.0334L32.869 29.3587L30.8451 31.5732ZM32.3214 28.0094L30.8451 29.3587L32.869 31.5732L34.3453 30.2239L32.3214 28.0094ZM35.0834 28.6841L34.3453 28.0094L32.3214 30.2239L33.0595 30.8985L35.0834 28.6841ZM51.012 43.2424L35.0834 28.6841L33.0595 30.8985L48.988 45.4568L51.012 43.2424ZM64.9166 28.6841L48.988 43.2424L51.012 45.4568L66.9405 30.8985L64.9166 28.6841ZM65.6547 28.0094L64.9166 28.6841L66.9405 30.8985L67.6786 30.2239L65.6547 28.0094ZM69.1549 29.3587L67.6786 28.0094L65.6547 30.2239L67.131 31.5732L69.1549 29.3587ZM68.4168 32.2478L69.1549 31.5732L67.131 29.3587L66.3928 30.0334L68.4168 32.2478ZM52.4883 46.8061L68.4168 32.2478L66.3928 30.0334L50.4643 44.5917L52.4883 46.8061ZM68.4168 59.15L52.4883 44.5917L50.4643 46.8061L66.3928 61.3645L68.4168 59.15ZM69.1549 59.8247L68.4168 59.15L66.3928 61.3645L67.131 62.0391L69.1549 59.8247ZM67.6786 63.3884L69.1549 62.0391L67.131 59.8247L65.6547 61.174L67.6786 63.3884ZM64.9166 62.7138L65.6547 63.3884L67.6786 61.174L66.9405 60.4993L64.9166 62.7138ZM48.988 48.1554L64.9166 62.7138L66.9405 60.4993L51.012 45.941L48.988 48.1554ZM35.0834 62.7138L51.012 48.1554L48.988 45.941L33.0595 60.4993L35.0834 62.7138ZM34.3453 63.3884L35.0834 62.7138L33.0595 60.4993L32.3214 61.174L34.3453 63.3884ZM30.8451 62.0391L32.3214 63.3884L34.3453 61.174L32.869 59.8247L30.8451 62.0391Z" fill="#FE0D0D" fill-opacity="0.78"/>
</svg>
