<svg width="122" height="108" viewBox="0 0 122 108" fill="none" xmlns="http://www.w3.org/2000/svg">
<path d="M20.3333 44.5C20.3333 42.6144 20.3333 41.6716 20.9191 41.0858C21.5049 40.5 22.4477 40.5 24.3333 40.5H49.3172C50.0668 40.5 50.4416 40.5 50.7841 40.6298C51.1266 40.7597 51.4073 41.0081 51.9685 41.505L64.9481 52.995C65.5094 53.4919 65.79 53.7403 66.1325 53.8702C66.4751 54 66.8499 54 67.5994 54H97.6667C99.5523 54 100.495 54 101.081 54.5858C101.667 55.1716 101.667 56.1144 101.667 58V86C101.667 87.8856 101.667 88.8284 101.081 89.4142C100.495 90 99.5523 90 97.6666 90H24.3333C22.4477 90 21.5049 90 20.9191 89.4142C20.3333 88.8284 20.3333 87.8856 20.3333 86V44.5Z" stroke="#33363F" stroke-width="2"/>
<path d="M91.5 54V22C91.5 20.1144 91.5 19.1716 90.9142 18.5858C90.3284 18 89.3856 18 87.5 18H34.5C32.6144 18 31.6716 18 31.0858 18.5858C30.5 19.1716 30.5 20.1144 30.5 22V40.5" stroke="#33363F" stroke-width="2"/>
</svg>
