<svg width="20" height="21" viewBox="0 0 20 21" fill="none" xmlns="http://www.w3.org/2000/svg">
<path d="M13.3563 2.34726C10.3051 -0.782421 5.33907 -0.782421 2.28789 2.34726C-0.762629 5.47762 -0.762629 10.5707 2.28789 13.7011C5.00504 16.4875 9.23688 16.786 12.2861 14.6102C12.3502 14.9216 12.4971 15.2188 12.7332 15.461L17.1767 20.0188C17.8242 20.6817 18.8706 20.6817 19.5148 20.0188C20.1617 19.3553 20.1617 18.282 19.5148 17.6205L15.0714 13.0613C14.8365 12.8212 14.5462 12.6699 14.2426 12.604C16.3651 9.47572 16.0741 5.13569 13.3563 2.34726ZM11.9534 12.2621C9.6754 14.5987 5.96809 14.5987 3.69078 12.2621C1.41414 9.92553 1.41414 6.12351 3.69078 3.78693C5.96809 1.45103 9.6754 1.45103 11.9534 3.78693C14.2313 6.12351 14.2313 9.92553 11.9534 12.2621Z" fill="black"/>
</svg>
