<svg width="53" height="55" viewBox="0 0 53 55" fill="none" xmlns="http://www.w3.org/2000/svg">
<path fill-rule="evenodd" clip-rule="evenodd" d="M11.6478 23.2058C11.0417 24.5733 11.0417 26.1291 11.0417 29.2406V38.9582C11.0417 43.2794 11.0417 45.44 12.3353 46.7824C13.6289 48.1249 15.7109 48.1249 19.875 48.1249H19.9792V36.6667C19.9792 34.884 21.381 33.375 23.1875 33.375H29.8125C31.619 33.375 33.0209 34.884 33.0209 36.6667V48.1249H33.125C37.2891 48.1249 39.3711 48.1249 40.6647 46.7824C41.9584 45.44 41.9584 43.2794 41.9584 38.9582V29.2406C41.9584 26.1291 41.9584 24.5733 41.3523 23.2058C40.7462 21.8383 39.6079 20.8258 37.3313 18.8009L35.123 16.8366C31.0082 13.1765 28.9508 11.3464 26.5 11.3464C24.0493 11.3464 21.9919 13.1765 17.877 16.8366L15.6687 18.8009C13.3922 20.8258 12.2539 21.8383 11.6478 23.2058ZM31.0209 48.1249V36.6667C31.0209 35.9181 30.4453 35.375 29.8125 35.375H23.1875C22.5548 35.375 21.9792 35.9181 21.9792 36.6667V48.1249H31.0209Z" fill="white"/>
</svg>
