<svg width="89" height="81" viewBox="0 0 89 81" fill="none" xmlns="http://www.w3.org/2000/svg">
<g clip-path="url(#clip0_175_179)">
<path d="M26.6908 36.4709C24.0081 36.4709 21.827 38.4942 21.827 40.9829C21.827 43.4709 24.009 45.4942 26.6908 45.4942C29.3727 45.4942 31.5529 43.4709 31.5529 40.9829C31.5529 38.4934 29.3727 36.4709 26.6908 36.4709ZM26.6908 43.1512C25.4014 43.1512 24.3526 42.1775 24.3526 40.9829C24.3526 39.7868 25.4014 38.8138 26.6908 38.8138C27.9794 38.8138 29.0282 39.7868 29.0282 40.9829C29.0282 42.1775 27.9794 43.1512 26.6908 43.1512Z" fill="white"/>
<path d="M37.1618 38.2216L35.2658 37.789C35.2285 37.71 35.1904 37.63 35.1495 37.5477L36.1068 36.0557C36.4025 35.5944 36.3226 35.0078 35.9141 34.628L33.5475 32.4383C33.1416 32.0627 32.5129 31.9877 32.0165 32.2563L30.3869 33.1435C30.299 33.104 30.2093 33.0661 30.1187 33.029L29.6561 31.2611C29.5175 30.7363 29.0113 30.3672 28.4288 30.3672H25.0906C24.5072 30.3672 24.001 30.7363 23.8633 31.2611L23.4167 32.9672C23.2977 33.0101 23.1778 33.057 23.057 33.1081L21.5438 32.2818C21.0473 32.0099 20.4142 32.0857 20.0075 32.4655L17.6479 34.6692C17.2403 35.049 17.1639 35.6364 17.4596 36.0961L18.3104 37.4142C18.2322 37.5608 18.1559 37.7124 18.0839 37.8739L16.3576 38.271C15.7937 38.3995 15.3985 38.8683 15.3985 39.4062V42.5029C15.3985 43.0417 15.7955 43.5121 16.3594 43.6415L18.052 44.0262C18.1212 44.186 18.1967 44.35 18.2793 44.5139L17.4277 45.8411C17.1328 46.3024 17.2119 46.8906 17.6213 47.2696L19.987 49.4585C20.3991 49.8407 21.0402 49.9107 21.5376 49.6282L22.9797 48.8109C23.1458 48.8826 23.3216 48.9559 23.5072 49.0243L23.9184 50.5583C24.0578 51.0806 24.5631 51.4472 25.143 51.4472H28.4803C29.0611 51.4472 29.5655 51.0806 29.7058 50.5558L30.1409 48.932C30.2812 48.8768 30.4207 48.8175 30.5645 48.7533L32.0937 49.6076C32.5919 49.8852 33.2269 49.8135 33.6363 49.4329L35.9976 47.2473C36.407 46.8684 36.486 46.2777 36.1867 45.8172L35.1957 44.2832C35.2401 44.1934 35.2827 44.102 35.3244 44.0089L37.1609 43.5929C37.7248 43.4635 38.1227 42.9931 38.1227 42.4552V39.3576C38.1227 38.8205 37.7248 38.3501 37.1618 38.2216ZM35.5971 41.5374L34.0652 41.8867C33.6256 41.9872 33.2775 42.2953 33.1523 42.7007C33.036 43.0739 32.8255 43.4668 32.6363 43.8087C32.4383 44.1687 32.4525 44.5996 32.6781 44.9464L33.5146 46.2398L32.5502 47.132L31.2554 46.4095C30.8638 46.1904 30.3763 46.1862 29.9811 46.393C29.5095 46.6435 29.0895 46.8181 28.697 46.9343C28.2778 47.0554 27.9572 47.3726 27.8507 47.7696L27.4928 49.105H26.1296L25.7895 47.8397C25.6794 47.4302 25.3402 47.1065 24.9015 46.9936C24.5063 46.8923 24.0809 46.7226 23.5206 46.4416C23.1254 46.2431 22.6467 46.2554 22.2631 46.4738L21.066 47.1509L20.0989 46.2571L20.8049 45.1548C21.0349 44.7956 21.042 44.3524 20.8245 43.9891C20.55 43.5311 20.3565 43.1142 20.2312 42.7155C20.1051 42.3135 19.7579 42.0037 19.321 41.9057L17.9214 41.5869V40.3248L19.3414 39.9977C19.7739 39.8997 20.1193 39.5957 20.2481 39.1986C20.392 38.7521 20.6504 38.299 20.8591 37.9538C21.0811 37.5872 21.074 37.1407 20.8413 36.779L20.1291 35.6759L21.1069 34.7623L22.3581 35.4469C22.7355 35.6529 23.2 35.6636 23.5863 35.4749C24.0489 35.2509 24.4548 35.0919 24.8304 34.9914C25.2656 34.8744 25.5995 34.5514 25.7069 34.1428L26.0817 32.711H27.4359L27.8214 34.1832C27.9261 34.5827 28.2494 34.9032 28.6721 35.0243C29.0486 35.1322 29.4518 35.325 29.8319 35.5137C30.22 35.7056 30.6853 35.6974 31.0654 35.4914L32.4525 34.7368L33.4329 35.6438L32.6248 36.9026C32.3983 37.2569 32.3877 37.6943 32.599 38.056C32.8388 38.4695 33.0004 38.8114 33.1079 39.1311C33.2402 39.5232 33.583 39.8214 34.011 39.9203L35.5953 40.2811V41.5374H35.5971Z" fill="white"/>
<path d="M12.9688 49.5515C11.6288 49.5515 10.5374 50.5615 10.5374 51.8055C10.5374 53.0495 11.6288 54.0611 12.9688 54.0611C14.3098 54.0611 15.4003 53.0486 15.4003 51.8055C15.3994 50.5615 14.3098 49.5515 12.9688 49.5515ZM12.9688 52.8896C12.3241 52.8896 11.8002 52.4036 11.8002 51.8063C11.8002 51.2074 12.3241 50.7238 12.9688 50.7238C13.6127 50.7238 14.1384 51.2082 14.1384 51.8063C14.1366 52.4036 13.6127 52.8896 12.9688 52.8896Z" fill="white"/>
<path d="M18.2047 50.4256L17.2563 50.209C17.2377 50.1694 17.219 50.1299 17.1986 50.0887L17.6772 49.3431C17.8255 49.1125 17.7865 48.8175 17.5804 48.6281L16.3976 47.534C16.1942 47.3454 15.8798 47.3091 15.6321 47.4426L14.8168 47.8866C14.7733 47.8668 14.7289 47.8487 14.6827 47.8314L14.4519 46.9466C14.3835 46.6838 14.1295 46.4985 13.8391 46.4985H12.1705C11.8783 46.4985 11.6252 46.6855 11.5568 46.9466L11.333 47.7993C11.2735 47.8207 11.2132 47.8438 11.1528 47.871L10.3962 47.4574C10.1484 47.3215 9.83136 47.3594 9.62888 47.548L8.44778 48.6495C8.24442 48.8414 8.20624 49.1347 8.35454 49.3629L8.77903 50.0244C8.73995 50.0969 8.70265 50.1727 8.66536 50.2526L7.80218 50.4512C7.52155 50.5154 7.32263 50.7494 7.32263 51.0188V52.5684C7.32263 52.8361 7.52067 53.0701 7.80395 53.136L8.65026 53.3279C8.68578 53.4079 8.72308 53.4894 8.76393 53.5726L8.33856 54.2366C8.19025 54.4665 8.23021 54.7606 8.43535 54.95L9.61823 56.0441C9.82337 56.2344 10.1448 56.2706 10.3935 56.1298L11.1146 55.7195C11.1972 55.7574 11.2851 55.7912 11.3774 55.8274L11.5835 56.5952C11.6545 56.8555 11.9067 57.0384 12.1953 57.0384H13.8649C14.1552 57.0384 14.4066 56.8555 14.4767 56.5927L14.6943 55.7813C14.7636 55.7541 14.8337 55.7236 14.9048 55.6923L15.6703 56.1199C15.9189 56.2591 16.2368 56.222 16.4411 56.0325L17.6213 54.9402C17.8264 54.7515 17.8664 54.4558 17.7163 54.2251L17.2208 53.4573C17.243 53.412 17.2643 53.3683 17.2847 53.3222L18.203 53.1129C18.4854 53.0478 18.6834 52.8139 18.6834 52.5437V50.9949C18.6843 50.7263 18.4862 50.4924 18.2047 50.4256ZM17.4224 52.0832L16.656 52.2586C16.4357 52.3089 16.2617 52.4621 16.1995 52.664C16.1418 52.8526 16.0352 53.0495 15.942 53.2184C15.8425 53.3996 15.8496 53.613 15.9615 53.7876L16.3798 54.4327L15.8967 54.88L15.2502 54.5192C15.0539 54.4096 14.8106 54.408 14.6135 54.5118C14.3764 54.6362 14.1668 54.7251 13.9714 54.7812C13.761 54.8438 13.6011 55.0019 13.5478 55.2005L13.3684 55.8678H12.6882L12.5186 55.2343C12.4635 55.03 12.2939 54.8677 12.0737 54.8116C11.8774 54.7606 11.6643 54.6757 11.3837 54.5348C11.1856 54.436 10.9467 54.4434 10.7549 54.5505L10.1573 54.8907L9.6724 54.4434L10.0267 53.8923C10.1413 53.7118 10.1448 53.4902 10.0347 53.3082C9.89885 53.0816 9.80116 52.8724 9.739 52.6714C9.67595 52.4712 9.50278 52.3171 9.28255 52.2677L8.58543 52.1087V51.4768L9.29587 51.3145C9.51166 51.2643 9.68483 51.1127 9.74788 50.9142C9.81981 50.6909 9.94947 50.4652 10.0534 50.2913C10.1653 50.1093 10.1617 49.886 10.0445 49.7031L9.68927 49.152L10.1777 48.6956L10.8047 49.0375C10.9929 49.1413 11.2247 49.1471 11.4174 49.0523C11.6492 48.9395 11.8508 48.862 12.0399 48.8109C12.2575 48.7524 12.4244 48.5893 12.4786 48.385L12.666 47.6699H13.3427L13.5354 48.4048C13.5878 48.6058 13.7503 48.7656 13.9625 48.8274C14.1499 48.8801 14.3515 48.9782 14.5415 49.0729C14.736 49.1685 14.9687 49.1635 15.1578 49.0614L15.8505 48.6841L16.3416 49.1363L15.9384 49.7666C15.8248 49.9437 15.8203 50.1612 15.9251 50.3424C16.045 50.5492 16.1258 50.7197 16.18 50.8787C16.2457 51.0748 16.4171 51.2239 16.632 51.2733L17.4233 51.4546L17.4224 52.0832Z" fill="white"/>
<path d="M43.6659 68.4039C44.4506 68.4039 45.0867 67.8137 45.0867 67.0858C45.0867 66.3578 44.4506 65.7676 43.6659 65.7676C42.8811 65.7676 42.245 66.3578 42.245 67.0858C42.245 67.8137 42.8811 68.4039 43.6659 68.4039Z" fill="white"/>
<path d="M88.2342 40.8314C88.2342 18.2299 68.484 -0.0927124 44.1205 -0.0927124C19.757 -0.0927124 0.00512695 18.2299 0.00512695 40.8314C0.00512695 59.8476 13.9865 75.8314 32.9329 80.4259C33.1638 80.5124 33.4418 80.5766 33.7686 80.6186C34.0235 80.6516 34.3059 80.6705 34.6273 80.6705H35.2889C34.5261 80.6689 33.908 80.056 33.908 79.2972C33.908 79.1259 33.9426 78.9644 33.9995 78.8145C34.0465 78.6835 34.1975 78.3581 34.5705 78.129C34.6495 78.0821 34.7339 78.0401 34.8236 78.0079C34.892 77.9733 34.9568 77.942 35.0314 77.9066C38.1617 76.923 39.2727 75.0974 40.1305 70.8794H48.0599C48.9684 75.0488 50.0793 76.876 53.2097 77.9066C53.326 77.9593 53.429 78.0096 53.5285 78.0598C53.961 78.3095 54.1723 78.7288 54.222 78.8433C54.2735 78.985 54.3064 79.1357 54.3064 79.298C54.3064 80.0568 53.6892 80.6697 52.9255 80.6714H53.6146C53.9245 80.6714 54.1981 80.6549 54.4467 80.6244C54.8126 80.5816 55.1145 80.5082 55.3614 80.4119C55.7575 80.3155 56.15 80.2067 56.5416 80.0996H56.57V80.0922C74.8709 75.1073 88.2342 59.4209 88.2342 40.8314ZM25.1332 68.9616C24.1227 68.9616 23.4158 68.4903 23.4158 67.5067V64.7436H64.8244V67.5067C64.8244 68.4895 64.1166 68.9616 63.1078 68.9616H25.1332ZM55.9235 77.4832C55.5434 77.0968 54.9263 76.7582 53.9681 76.3133C53.9681 76.3133 53.9681 76.3133 53.9174 76.2672C51.7959 75.6106 50.8874 74.5808 50.0287 70.8325H63.1087C65.1779 70.8325 66.8447 69.4748 66.8447 67.5059V41.9773C66.8447 40.0562 65.1779 38.5099 63.1087 38.5099H40.4094C40.5328 39.1211 40.611 39.7456 40.6385 40.3841H63.0572C64.1166 40.3841 64.7747 41.0406 64.7747 41.9773V63.3382H23.4158V53.4976C22.7204 53.3444 22.0455 53.1393 21.3964 52.8938V67.5067C21.3964 69.4279 23.0623 70.8333 25.1332 70.8333H38.2115C37.3536 74.5817 36.4452 75.6115 34.3236 76.268C33.3352 76.7269 32.6967 77.0746 32.3078 77.4823C15.2955 72.7701 2.89216 58.1465 2.89216 40.8314C2.89216 19.7078 21.3502 2.58388 44.1196 2.58388C66.8909 2.58388 85.3489 19.7086 85.3489 40.8314C85.348 58.1481 72.9411 72.775 55.9235 77.4832Z" fill="white"/>
</g>
<defs>
<clipPath id="clip0_175_179">
<rect width="88.229" height="80.7641" fill="white" transform="translate(0.00512695 -0.0927124)"/>
</clipPath>
</defs>
</svg>
