<svg width="37" height="40" viewBox="0 0 37 40" fill="none" xmlns="http://www.w3.org/2000/svg">
<path d="M21.7513 5.14916L22.747 5.05705L22.747 5.05705L21.7513 5.14916ZM21.3453 3.59442L20.6715 4.33337L20.6715 4.33338L21.3453 3.59442ZM21.8624 6.35022H22.8624V6.30407L22.8581 6.25811L21.8624 6.35022ZM21.8624 6.35024H20.8624V6.39639L20.8666 6.44235L21.8624 6.35024ZM25.1789 7.66408L24.5789 6.86408L24.5466 6.8883L24.5164 6.91505L25.1789 7.66408ZM25.1789 7.66407L25.7789 8.46407L25.8112 8.43985L25.8415 8.41311L25.1789 7.66407ZM25.7558 7.15381L25.0933 6.40478L25.0933 6.40478L25.7558 7.15381ZM28.5491 7.29379L27.815 7.97283L27.815 7.97283L28.5491 7.29379ZM30.4441 9.34244L29.71 10.0215L29.71 10.0215L30.4441 9.34244ZM31.2774 10.587L30.2786 10.6362L30.2786 10.6362L31.2774 10.587ZM30.5707 11.9075L31.368 12.5109L31.368 12.5109L30.5707 11.9075ZM29.6253 13.1566L28.8279 12.5531L28.8279 12.5531L29.6253 13.1566ZM28.4391 15.5644L29.3572 15.168L29.3572 15.168L28.4391 15.5644ZM31.0051 16.3519L31.1126 15.3577L31.1126 15.3577L31.0051 16.3519ZM32.1316 16.4737L32.0241 17.4679L32.0241 17.4679L32.1316 16.4737ZM33.6608 16.8964L32.9166 17.5644L32.9166 17.5644L33.6608 16.8964ZM33.6608 23.1037L32.9166 22.4357L32.9166 22.4357L33.6608 23.1037ZM32.1316 23.5264L32.0241 22.5321L32.0241 22.5321L32.1316 23.5264ZM31.0057 23.6481L31.1132 24.6423L31.1132 24.6423L31.0057 23.6481ZM28.4397 24.4356L29.3577 24.8321L29.3577 24.8321L28.4397 24.4356ZM29.6259 26.8434L28.8285 27.4469L28.8285 27.4469L29.6259 26.8434ZM30.5707 28.0919L31.3681 27.4884L31.3681 27.4884L30.5707 28.0919ZM31.2775 29.4124L30.2787 29.3631L30.2787 29.3631L31.2775 29.4124ZM30.4442 30.6569L29.7101 29.9779L29.7101 29.9779L30.4442 30.6569ZM28.5492 32.7056L27.8151 32.0265L27.8151 32.0265L28.5492 32.7056ZM27.201 33.7432L27.151 32.7444L27.151 32.7444L27.201 33.7432ZM25.7559 32.8455L25.0488 33.5527L25.0704 33.5743L25.0934 33.5946L25.7559 32.8455ZM25.7559 32.8455L26.463 32.1384L26.4413 32.1168L26.4184 32.0965L25.7559 32.8455ZM25.179 32.3353L24.5165 33.0843L24.5165 33.0843L25.179 32.3353ZM22.6715 30.8484L22.3032 29.9187L22.3032 29.9187L22.6715 30.8484ZM21.8624 33.6491L20.8667 33.557L20.8624 33.603V33.6491H21.8624ZM21.8624 33.6491L22.8582 33.7412L22.8624 33.6953V33.6491H21.8624ZM21.7513 34.8509L22.747 34.943L22.747 34.943L21.7513 34.8509ZM21.3453 36.4057L20.6715 35.6667L20.6715 35.6667L21.3453 36.4057ZM15.6547 36.4057L16.3284 35.6667L16.3284 35.6667L15.6547 36.4057ZM15.2487 34.8509L14.2529 34.943L14.2529 34.943L15.2487 34.8509ZM15.1376 33.6498L16.1333 33.5577L16.1333 33.5577L15.1376 33.6498ZM11.821 32.3359L12.4835 33.085L12.4835 33.085L11.821 32.3359ZM11.244 32.8463L10.5815 32.0973L10.5815 32.0973L11.244 32.8463ZM9.79889 33.7439L9.84894 32.7452L9.84894 32.7452L9.79889 33.7439ZM8.45075 32.7063L7.71665 33.3854L8.45075 32.7063ZM6.55575 30.6577L7.28985 29.9786L7.28985 29.9786L6.55575 30.6577ZM5.72241 29.4131L6.7212 29.3639L6.7212 29.3639L5.72241 29.4131ZM6.42918 28.0926L5.6318 27.4892L5.6318 27.4892L6.42918 28.0926ZM7.37456 26.8435L6.57717 26.24L6.57717 26.24L7.37456 26.8435ZM8.56077 24.4357L9.47883 24.0392L9.47883 24.0392L8.56077 24.4357ZM5.99476 23.6481L6.10224 22.6539L6.10224 22.6539L5.99476 23.6481ZM4.86835 23.5264L4.76087 24.5206L4.76087 24.5206L4.86835 23.5264ZM3.33918 23.1037L4.08331 22.4357L4.08331 22.4357L3.33918 23.1037ZM3.08331 21.5379L4.08331 21.5379L4.08331 21.5379L3.08331 21.5379ZM3.08331 18.4621L2.08331 18.4621L2.08331 18.4621L3.08331 18.4621ZM3.33918 16.8964L2.59504 16.2284L2.59504 16.2284L3.33918 16.8964ZM4.86835 16.4737L4.76087 15.4795L4.76087 15.4795L4.86835 16.4737ZM5.99533 16.3519L5.88785 15.3577L5.88785 15.3577L5.99533 16.3519ZM7.37514 13.1565L8.17252 12.5531L8.17252 12.5531L7.37514 13.1565ZM6.42925 11.9067L5.63187 12.5102L5.63187 12.5102L6.42925 11.9067ZM5.72248 10.5862L6.72127 10.6355L6.72127 10.6355L5.72248 10.5862ZM6.55582 9.34168L7.28992 10.0207L7.28992 10.0207L6.55582 9.34168ZM8.45082 7.29303L7.71672 6.61399L7.71672 6.61399L8.45082 7.29303ZM9.79896 6.25539L9.84901 7.25414L9.84901 7.25414L9.79896 6.25539ZM11.2441 7.15306L11.9066 6.40402L11.9066 6.40402L11.2441 7.15306ZM11.8211 7.66342L11.1585 8.41245L11.1585 8.41245L11.8211 7.66342ZM14.3286 9.15026L14.6969 10.08L14.6969 10.08L14.3286 9.15026ZM15.1376 6.34957L14.1419 6.25746L14.1419 6.25746L15.1376 6.34957ZM15.2487 5.14916L16.2444 5.24127L16.2444 5.24127L15.2487 5.14916ZM15.6547 3.59442L14.9809 2.85546L14.9809 2.85547L15.6547 3.59442ZM22.747 5.05705C22.7096 4.65256 22.6746 4.25316 22.6014 3.9272C22.522 3.57333 22.3724 3.17762 22.0191 2.85546L20.6715 4.33338C20.6045 4.27226 20.618 4.22269 20.65 4.36531C20.6883 4.53585 20.7132 4.7833 20.7555 5.24127L22.747 5.05705ZM22.8581 6.25811L22.747 5.05705L20.7555 5.24127L20.8666 6.44233L22.8581 6.25811ZM22.8624 6.35024V6.35022H20.8624V6.35024H22.8624ZM23.0397 8.22121C23.225 8.29463 23.1749 8.44742 23.0841 8.07344C22.9946 7.70474 22.9406 7.15019 22.8581 6.25813L20.8666 6.44235C20.9429 7.26664 21.008 7.99935 21.1406 8.54536C21.2719 9.08609 21.5469 9.78105 22.3031 10.0806L23.0397 8.22121ZM24.5164 6.91505C23.8454 7.50859 23.4263 7.87576 23.1085 8.08313C22.7863 8.29346 22.8544 8.14779 23.0397 8.22121L22.3031 10.0806C23.0593 10.3802 23.7357 10.0621 24.2016 9.75799C24.6722 9.4509 25.2214 8.96157 25.8415 8.41311L24.5164 6.91505ZM24.5789 6.86407L24.5789 6.86408L25.7789 8.46408L25.7789 8.46407L24.5789 6.86407ZM25.0933 6.40478L24.5164 6.91504L25.8415 8.41311L26.4184 7.90284L25.0933 6.40478ZM27.251 5.2574C26.7467 5.23213 26.3435 5.42539 26.0274 5.63782C25.7353 5.83409 25.4183 6.11726 25.0933 6.40478L26.4184 7.90284C26.7853 7.57831 26.9872 7.40245 27.1429 7.2978C27.2746 7.2093 27.248 7.25976 27.1509 7.25489L27.251 5.2574ZM29.2832 6.61475C28.9885 6.29618 28.7014 5.98273 28.4304 5.75825C28.1372 5.51528 27.7553 5.28267 27.251 5.2574L27.1509 7.25489C27.0538 7.25003 27.0323 7.19716 27.1545 7.29838C27.299 7.41808 27.4824 7.61324 27.815 7.97283L29.2832 6.61475ZM31.1782 8.6634L29.2832 6.61475L27.815 7.97283L29.71 10.0215L31.1782 8.6634ZM32.2762 10.5377C32.2542 10.0914 32.069 9.74245 31.8701 9.46553C31.6873 9.21118 31.4327 8.93853 31.1782 8.6634L29.71 10.0215C29.9991 10.334 30.1522 10.5022 30.2457 10.6324C30.3231 10.7401 30.2827 10.7195 30.2786 10.6362L32.2762 10.5377ZM31.368 12.5109C31.5942 12.2121 31.8208 11.9157 31.9776 11.6446C32.1483 11.3494 32.2982 10.9839 32.2762 10.5377L30.2786 10.6362C30.2745 10.553 30.3127 10.5285 30.2463 10.6433C30.166 10.7821 30.0302 10.9645 29.7733 11.304L31.368 12.5109ZM30.4227 13.7601L31.368 12.5109L29.7733 11.304L28.8279 12.5531L30.4227 13.7601ZM29.3572 15.168C29.4277 15.3313 29.3088 15.3999 29.4685 15.1079C29.6317 14.8096 29.9298 14.4113 30.4227 13.7601L28.8279 12.5531C28.3759 13.1504 27.9654 13.6884 27.7139 14.1481C27.459 14.6141 27.2194 15.2623 27.521 15.9608L29.3572 15.168ZM31.1126 15.3577C30.3006 15.27 29.8063 15.2138 29.4772 15.1281C29.1552 15.0441 29.2866 15.0046 29.3572 15.168L27.521 15.9608C27.8227 16.6593 28.4588 16.9294 28.9728 17.0634C29.4798 17.1956 30.153 17.2656 30.8976 17.3462L31.1126 15.3577ZM32.2391 15.4795L31.1126 15.3577L30.8976 17.3462L32.0241 17.4679L32.2391 15.4795ZM34.4049 16.2284C34.0894 15.8769 33.7006 15.7238 33.3518 15.6402C33.0307 15.5632 32.6371 15.5225 32.2391 15.4795L32.0241 17.4679C32.475 17.5167 32.718 17.5449 32.8854 17.585C33.025 17.6185 32.9763 17.6309 32.9166 17.5644L34.4049 16.2284ZM34.9166 18.4621C34.9166 18.0618 34.9186 17.6661 34.8765 17.3386C34.8308 16.9828 34.7205 16.5799 34.4049 16.2284L32.9166 17.5644C32.857 17.498 32.8745 17.4509 32.8928 17.5933C32.9147 17.764 32.9166 18.0086 32.9166 18.4621H34.9166ZM34.9166 21.5379V18.4621H32.9166V21.5379H34.9166ZM34.4049 23.7717C34.7205 23.4202 34.8308 23.0172 34.8765 22.6615C34.9186 22.334 34.9166 21.9382 34.9166 21.5379H32.9166C32.9166 21.9915 32.9147 22.2361 32.8928 22.4068C32.8745 22.5492 32.857 22.5021 32.9166 22.4357L34.4049 23.7717ZM32.2391 24.5206C32.6371 24.4775 33.0307 24.4369 33.3518 24.3599C33.7006 24.2763 34.0894 24.1232 34.4049 23.7717L32.9166 22.4357C32.9763 22.3692 33.025 22.3816 32.8854 22.4151C32.718 22.4552 32.475 22.4834 32.0241 22.5321L32.2391 24.5206ZM31.1132 24.6423L32.2391 24.5206L32.0241 22.5321L30.8982 22.6539L31.1132 24.6423ZM29.3577 24.8321C29.2872 24.9954 29.1557 24.9559 29.4778 24.872C29.8069 24.7862 30.3012 24.7301 31.1132 24.6423L30.8982 22.6539C30.1535 22.7344 29.4804 22.8045 28.9734 22.9366C28.4594 23.0706 27.8232 23.3407 27.5216 24.0392L29.3577 24.8321ZM30.4233 26.24C29.9304 25.5887 29.6323 25.1904 29.4691 24.8921C29.3094 24.6001 29.4283 24.6687 29.3577 24.8321L27.5216 24.0392C27.22 24.7377 27.4596 25.3859 27.7145 25.852C27.9659 26.3116 28.3765 26.8497 28.8285 27.4469L30.4233 26.24ZM31.3681 27.4884L30.4233 26.24L28.8285 27.4469L29.7733 28.6953L31.3681 27.4884ZM32.2763 29.4617C32.2983 29.0154 32.1483 28.6499 31.9776 28.3547C31.8208 28.0836 31.5943 27.7872 31.3681 27.4884L29.7733 28.6953C30.0303 29.0349 30.1661 29.2172 30.2463 29.3561C30.3127 29.4708 30.2746 29.4464 30.2787 29.3631L32.2763 29.4617ZM31.1783 31.3359C31.4328 31.0608 31.6874 30.7882 31.8701 30.5338C32.0691 30.2569 32.2543 29.9079 32.2763 29.4617L30.2787 29.3631C30.2828 29.2798 30.3232 29.2593 30.2458 29.3669C30.1522 29.4972 29.9992 29.6653 29.7101 29.9779L31.1783 31.3359ZM29.2833 33.3846L31.1783 31.3359L29.7101 29.9779L27.8151 32.0265L29.2833 33.3846ZM27.2511 34.7419C27.7554 34.7167 28.1372 34.4841 28.4305 34.2411C28.7015 34.0166 28.9886 33.7032 29.2833 33.3846L27.8151 32.0265C27.4824 32.3861 27.2991 32.5813 27.1546 32.701C27.0324 32.8022 27.0538 32.7493 27.151 32.7444L27.2511 34.7419ZM25.0934 33.5946C25.4184 33.8821 25.7354 34.1653 26.0275 34.3615C26.3436 34.574 26.7467 34.7672 27.2511 34.7419L27.151 32.7444C27.2481 32.7396 27.2747 32.79 27.143 32.7015C26.9873 32.5969 26.7853 32.421 26.4184 32.0965L25.0934 33.5946ZM25.0488 33.5526L25.0488 33.5527L26.463 32.1384L26.463 32.1384L25.0488 33.5526ZM24.5165 33.0843L25.0934 33.5946L26.4184 32.0965L25.8415 31.5862L24.5165 33.0843ZM23.0398 31.7781C22.8544 31.8515 22.7863 31.7059 23.1086 31.9162C23.4264 32.1236 23.8454 32.4908 24.5165 33.0843L25.8415 31.5862C25.2215 31.0378 24.6722 30.5485 24.2017 30.2414C23.7357 29.9372 23.0594 29.6191 22.3032 29.9187L23.0398 31.7781ZM22.8582 33.7412C22.9407 32.8492 22.9946 32.2946 23.0842 31.9259C23.175 31.5519 23.2251 31.7047 23.0398 31.7781L22.3032 29.9187C21.547 30.2183 21.2719 30.9133 21.1406 31.454C21.0081 32 20.9429 32.7327 20.8667 33.557L22.8582 33.7412ZM22.8624 33.6491V33.6491H20.8624V33.6491H22.8624ZM22.747 34.943L22.8582 33.7412L20.8667 33.557L20.7555 34.7588L22.747 34.943ZM22.019 37.1446C22.3724 36.8225 22.522 36.4267 22.6014 36.0729C22.6746 35.7469 22.7096 35.3475 22.747 34.943L20.7555 34.7588C20.7132 35.2168 20.6883 35.4642 20.65 35.6348C20.618 35.7774 20.6045 35.7278 20.6715 35.6667L22.019 37.1446ZM19.7598 37.6667C20.166 37.6667 20.5669 37.6687 20.8982 37.6258C21.2579 37.5793 21.6657 37.4668 22.0191 37.1446L20.6715 35.6667C20.7386 35.6056 20.7867 35.6236 20.6417 35.6423C20.4684 35.6647 20.2197 35.6667 19.7598 35.6667V37.6667ZM17.2402 37.6667H19.7598V35.6667H17.2402V37.6667ZM14.9809 37.1446C15.3342 37.4668 15.742 37.5793 16.1017 37.6258C16.433 37.6687 16.834 37.6667 17.2402 37.6667V35.6667C16.7803 35.6667 16.5316 35.6647 16.3582 35.6423C16.2133 35.6236 16.2614 35.6056 16.3284 35.6667L14.9809 37.1446ZM14.2529 34.943C14.2904 35.3475 14.3253 35.7469 14.3985 36.0729C14.478 36.4267 14.6276 36.8225 14.9809 37.1446L16.3284 35.6667C16.3954 35.7278 16.382 35.7774 16.3499 35.6348C16.3117 35.4642 16.2868 35.2168 16.2444 34.7588L14.2529 34.943ZM14.1418 33.7419L14.2529 34.943L16.2444 34.7588L16.1333 33.5577L14.1418 33.7419ZM13.9602 31.7788C13.7749 31.7054 13.825 31.5526 13.9158 31.9266C14.0054 32.2953 14.0593 32.8498 14.1418 33.7419L16.1333 33.5577C16.0571 32.7334 15.992 32.0007 15.8594 31.4546C15.7281 30.9139 15.4531 30.2189 14.6968 29.9194L13.9602 31.7788ZM12.4835 33.085C13.1546 32.4914 13.5737 32.1242 13.8914 31.9169C14.2137 31.7065 14.1456 31.8522 13.9602 31.7788L14.6968 29.9194C13.9406 29.6198 13.2643 29.9379 12.7983 30.242C12.3278 30.5491 11.7785 31.0384 11.1585 31.5869L12.4835 33.085ZM11.9066 33.5953L12.4835 33.085L11.1585 31.5869L10.5815 32.0973L11.9066 33.5953ZM9.74884 34.7427C10.2532 34.768 10.6564 34.5747 10.9725 34.3623C11.2645 34.166 11.5815 33.8828 11.9066 33.5953L10.5815 32.0973C10.2146 32.4218 10.0126 32.5976 9.85689 32.7023C9.72521 32.7908 9.7518 32.7403 9.84894 32.7452L9.74884 34.7427ZM7.71665 33.3854C8.01133 33.7039 8.29843 34.0174 8.56939 34.2419C8.86267 34.4848 9.24451 34.7174 9.74884 34.7427L9.84894 32.7452C9.94608 32.7501 9.9675 32.8029 9.84532 32.7017C9.70084 32.582 9.51747 32.3869 9.18485 32.0273L7.71665 33.3854ZM5.82165 31.3367L7.71665 33.3854L9.18485 32.0273L7.28985 29.9786L5.82165 31.3367ZM4.72363 29.4624C4.74565 29.9087 4.93085 30.2577 5.12979 30.5346C5.31251 30.7889 5.56715 31.0616 5.82165 31.3367L7.28985 29.9786C7.00073 29.6661 6.84766 29.4979 6.75409 29.3677C6.67674 29.26 6.71709 29.2806 6.7212 29.3639L4.72363 29.4624ZM5.6318 27.4892C5.40562 27.788 5.17906 28.0844 5.02226 28.3555C4.85156 28.6507 4.70161 29.0162 4.72363 29.4624L6.7212 29.3639C6.72531 29.4471 6.68718 29.4716 6.75356 29.3568C6.83385 29.218 6.96962 29.0356 7.22657 28.6961L5.6318 27.4892ZM6.57717 26.24L5.6318 27.4892L7.22657 28.6961L8.17194 27.447L6.57717 26.24ZM7.6427 24.8321C7.57215 24.6687 7.69106 24.6002 7.53132 24.8922C7.36812 25.1905 7.07002 25.5888 6.57717 26.24L8.17194 27.447C8.62395 26.8497 9.03449 26.3117 9.28595 25.852C9.54087 25.386 9.78046 24.7378 9.47883 24.0392L7.6427 24.8321ZM5.88727 24.6423C6.69923 24.7301 7.19356 24.7862 7.52262 24.872C7.8447 24.956 7.71326 24.9955 7.6427 24.8321L9.47883 24.0392C9.1772 23.3407 8.54107 23.0706 8.02706 22.9367C7.52005 22.8045 6.84691 22.7344 6.10224 22.6539L5.88727 24.6423ZM4.76087 24.5206L5.88728 24.6423L6.10224 22.6539L4.97583 22.5321L4.76087 24.5206ZM2.59504 23.7717C2.91057 24.1232 3.29936 24.2762 3.64816 24.3599C3.96925 24.4369 4.36288 24.4775 4.76087 24.5206L4.97583 22.5321C4.52494 22.4834 4.28192 22.4552 4.11461 22.4151C3.975 22.3816 4.02365 22.3692 4.08331 22.4357L2.59504 23.7717ZM2.08331 21.5379C2.08331 21.9382 2.08139 22.334 2.12344 22.6615C2.16912 23.0172 2.27951 23.4202 2.59504 23.7717L4.08331 22.4357C4.14298 22.5021 4.12544 22.5492 4.10715 22.4068C4.08524 22.2361 4.08331 21.9915 4.08331 21.5379L2.08331 21.5379ZM2.08331 18.4621L2.08331 21.5379L4.08331 21.5379L4.08331 18.4621L2.08331 18.4621ZM2.59504 16.2284C2.27951 16.5799 2.16912 16.9828 2.12344 17.3386C2.08139 17.6661 2.08331 18.0618 2.08331 18.4621L4.08331 18.4621C4.08331 18.0086 4.08524 17.764 4.10715 17.5933C4.12544 17.4509 4.14298 17.498 4.08331 17.5644L2.59504 16.2284ZM4.76087 15.4795C4.36288 15.5225 3.96925 15.5632 3.64816 15.6402C3.29936 15.7238 2.91057 15.8769 2.59504 16.2284L4.08331 17.5644C4.02365 17.6309 3.975 17.6185 4.11461 17.585C4.28192 17.5449 4.52494 17.5167 4.97583 17.4679L4.76087 15.4795ZM5.88785 15.3577L4.76087 15.4795L4.97583 17.4679L6.10281 17.3461L5.88785 15.3577ZM7.64328 15.1679C7.71383 15.0045 7.84528 15.0441 7.5232 15.128C7.19413 15.2138 6.69981 15.2699 5.88785 15.3577L6.10281 17.3461C6.84748 17.2656 7.52062 17.1955 8.02764 17.0634C8.54164 16.9294 9.17778 16.6593 9.47941 15.9608L7.64328 15.1679ZM6.57775 13.76C7.0706 14.4112 7.3687 14.8095 7.5319 15.1079C7.69164 15.3999 7.57273 15.3313 7.64328 15.1679L9.47941 15.9608C9.78103 15.2623 9.54145 14.614 9.28652 14.148C9.03507 13.6883 8.62452 13.1503 8.17252 12.5531L6.57775 13.76ZM5.63187 12.5102L6.57775 13.76L8.17252 12.5531L7.22664 11.3032L5.63187 12.5102ZM4.7237 10.5369C4.70168 10.9832 4.85162 11.3487 5.02233 11.6438C5.17913 11.9149 5.40569 12.2113 5.63187 12.5102L7.22664 11.3032C6.96969 10.9637 6.83391 10.7814 6.75363 10.6425C6.68725 10.5278 6.72537 10.5522 6.72127 10.6355L4.7237 10.5369ZM5.82172 8.66264C5.56722 8.93778 5.31258 9.21042 5.12985 9.46477C4.93092 9.74169 4.74572 10.0907 4.7237 10.5369L6.72127 10.6355C6.71716 10.7188 6.67681 10.7393 6.75416 10.6317C6.84773 10.5014 7.0008 10.3333 7.28992 10.0207L5.82172 8.66264ZM7.71672 6.61399L5.82172 8.66264L7.28992 10.0207L9.18492 7.97208L7.71672 6.61399ZM9.74891 5.25665C9.24457 5.28192 8.86274 5.51453 8.56946 5.75749C8.2985 5.98197 8.0114 6.29542 7.71672 6.61399L9.18492 7.97208C9.51754 7.61249 9.70091 7.41732 9.84539 7.29762C9.96756 7.19641 9.94615 7.24927 9.84901 7.25414L9.74891 5.25665ZM11.9066 6.40402C11.5816 6.11651 11.2646 5.83333 10.9725 5.63707C10.6564 5.42464 10.2532 5.23137 9.74891 5.25665L9.84901 7.25414C9.75187 7.25901 9.72528 7.20855 9.85696 7.29704C10.0127 7.4017 10.2147 7.57756 10.5816 7.90209L11.9066 6.40402ZM12.4836 6.91439L11.9066 6.40402L10.5816 7.90209L11.1585 8.41245L12.4836 6.91439ZM13.9603 8.22056C14.1456 8.14714 14.2138 8.29281 13.8915 8.08247C13.5737 7.8751 13.1546 7.50793 12.4836 6.91439L11.1585 8.41245C11.7786 8.96091 12.3278 9.45024 12.7984 9.75733C13.2644 10.0615 13.9407 10.3795 14.6969 10.08L13.9603 8.22056ZM14.1419 6.25746C14.0594 7.14952 14.0054 7.70408 13.9159 8.07279C13.8251 8.44677 13.775 8.29397 13.9603 8.22056L14.6969 10.08C15.4531 9.7804 15.7281 9.08543 15.8594 8.5447C15.992 7.99869 16.0571 7.26597 16.1334 6.44168L14.1419 6.25746ZM14.2529 5.05705L14.1419 6.25746L16.1334 6.44168L16.2444 5.24127L14.2529 5.05705ZM14.9809 2.85547C14.6276 3.17762 14.478 3.57334 14.3985 3.92721C14.3253 4.25317 14.2904 4.65256 14.2529 5.05706L16.2444 5.24127C16.2868 4.7833 16.3117 4.53585 16.3499 4.36531C16.382 4.22269 16.3954 4.27226 16.3284 4.33337L14.9809 2.85547ZM17.2402 2.33337C16.834 2.33337 16.433 2.33142 16.1017 2.37426C15.742 2.42078 15.3342 2.53331 14.9809 2.85546L16.3284 4.33337C16.2614 4.39449 16.2133 4.37649 16.3582 4.35775C16.5316 4.33533 16.7803 4.33337 17.2402 4.33337V2.33337ZM19.7598 2.33337H17.2402V4.33337H19.7598V2.33337ZM22.0191 2.85547C21.6657 2.53331 21.2579 2.42078 20.8982 2.37426C20.5669 2.33142 20.166 2.33337 19.7598 2.33337V4.33337C20.2197 4.33337 20.4684 4.33533 20.6417 4.35775C20.7867 4.37649 20.7386 4.39449 20.6715 4.33337L22.0191 2.85547ZM23.6666 20C23.6666 23.2045 21.2815 25.6667 18.5 25.6667V27.6667C22.53 27.6667 25.6666 24.1594 25.6666 20H23.6666ZM18.5 14.3334C21.2815 14.3334 23.6666 16.7956 23.6666 20H25.6666C25.6666 15.8407 22.53 12.3334 18.5 12.3334V14.3334ZM13.3333 20C13.3333 16.7956 15.7185 14.3334 18.5 14.3334V12.3334C14.47 12.3334 11.3333 15.8407 11.3333 20H13.3333ZM18.5 25.6667C15.7185 25.6667 13.3333 23.2045 13.3333 20H11.3333C11.3333 24.1594 14.47 27.6667 18.5 27.6667V25.6667Z" fill="white"/>
</svg>
