<svg width="63" height="65" viewBox="0 0 63 65" fill="none" xmlns="http://www.w3.org/2000/svg">
<path d="M18.375 19.3156V10.0494C18.375 7.89481 18.375 6.81751 19.068 6.2192C19.7609 5.6209 20.8267 5.77799 22.9583 6.09216L49.9999 10.0779C52.4443 10.4382 53.6664 10.6183 54.3957 11.463C55.125 12.3076 55.125 13.543 55.125 16.0138V48.9862C55.125 51.4569 55.125 52.6923 54.3957 53.537C53.6664 54.3816 52.4443 54.5617 49.9999 54.922L22.9583 58.9078C20.8267 59.2219 19.7609 59.379 19.068 58.7807C18.375 58.1824 18.375 57.1051 18.375 54.9505V46.2203" stroke="white" stroke-width="4"/>
<path d="M42 32.5L43.5805 31.2745L44.5308 32.5L43.5805 33.7256L42 32.5ZM10.5 34.5C9.39543 34.5 8.5 33.6046 8.5 32.5C8.5 31.3955 9.39543 30.5 10.5 30.5V34.5ZM33.0805 17.7329L43.5805 31.2745L40.4195 33.7256L29.9195 20.1839L33.0805 17.7329ZM43.5805 33.7256L33.0805 47.2672L29.9195 44.8162L40.4195 31.2745L43.5805 33.7256ZM42 34.5H10.5V30.5H42V34.5Z" fill="white"/>
</svg>
