<svg width="63" height="65" viewBox="0 0 63 65" fill="none" xmlns="http://www.w3.org/2000/svg">
<path d="M18.375 19.3155V10.0493C18.375 7.89475 18.375 6.81745 19.068 6.21914C19.7609 5.62084 20.8267 5.77793 22.9583 6.0921L49.9999 10.0778C52.4443 10.4381 53.6664 10.6182 54.3957 11.4629C55.125 12.3075 55.125 13.5429 55.125 16.0137V48.9861C55.125 51.4568 55.125 52.6922 54.3957 53.5369C53.6664 54.3815 52.4443 54.5616 49.9999 54.9219L22.9583 58.9077C20.8267 59.2218 19.7609 59.3789 19.068 58.7806C18.375 58.1823 18.375 57.105 18.375 54.9504V46.2202" fill="white"/>
<path d="M18.375 19.3155V10.0493C18.375 7.89475 18.375 6.81745 19.068 6.21914C19.7609 5.62084 20.8267 5.77793 22.9583 6.0921L49.9999 10.0778C52.4443 10.4381 53.6664 10.6182 54.3957 11.4629C55.125 12.3075 55.125 13.5429 55.125 16.0137V48.9861C55.125 51.4568 55.125 52.6922 54.3957 53.5369C53.6664 54.3815 52.4443 54.5616 49.9999 54.9219L22.9583 58.9077C20.8267 59.2218 19.7609 59.3789 19.068 58.7806C18.375 58.1823 18.375 57.105 18.375 54.9504V46.2202" stroke="black" stroke-width="4"/>
<path d="M42 32.4999L43.5805 31.2744L44.5308 32.4999L43.5805 33.7255L42 32.4999ZM10.5 34.4999C9.39543 34.4999 8.5 33.6045 8.5 32.4999C8.5 31.3954 9.39543 30.4999 10.5 30.4999V34.4999ZM33.0805 17.7328L43.5805 31.2744L40.4195 33.7255L29.9195 20.1838L33.0805 17.7328ZM43.5805 33.7255L33.0805 47.2671L29.9195 44.8161L40.4195 31.2744L43.5805 33.7255ZM42 34.4999H10.5V30.4999H42V34.4999Z" fill="black"/>
</svg>
