<svg width="48" height="41" viewBox="0 0 48 41" fill="none" xmlns="http://www.w3.org/2000/svg">
<path fill-rule="evenodd" clip-rule="evenodd" d="M31.3868 23.1284C31.7818 22.3193 32 21.4314 32 20.5C32 16.7261 28.4183 13.6667 24 13.6667C22.9096 13.6667 21.8701 13.853 20.9229 14.1904L22.767 15.7656C23.1593 15.701 23.5709 15.6667 24 15.6667C27.621 15.6667 30 18.1147 30 20.5C30 20.9221 29.9255 21.3462 29.7828 21.7583L31.3868 23.1284ZM19.7283 17.1155C18.6274 18.0335 18 19.275 18 20.5C18 22.8853 20.379 25.3333 24 25.3333C25.5857 25.3333 26.9333 24.8639 27.9471 24.1357L29.5001 25.4622C28.0664 26.622 26.1305 27.3333 24 27.3333C19.5817 27.3333 16 24.274 16 20.5C16 18.6802 16.8328 17.0266 18.1906 15.802L19.7283 17.1155Z" fill="#33363F"/>
<path fill-rule="evenodd" clip-rule="evenodd" d="M36.2217 27.2583C38.6991 25.4731 40.611 23.5608 41.711 22.3607L41.7449 22.3238C41.9584 22.091 42.1867 21.8421 42.3515 21.5964C42.5526 21.2967 42.7035 20.9421 42.7035 20.5C42.7035 20.0579 42.5526 19.7033 42.3515 19.4036C42.1867 19.1579 41.9584 18.909 41.7449 18.6762L41.711 18.6393C40.4426 17.2554 38.0944 14.9245 35.0445 12.9335C32.0013 10.9468 28.1847 9.25 24 9.25C21.4829 9.25 19.099 9.86392 16.9365 10.7855L18.6561 12.2544C20.3511 11.6328 22.1477 11.25 24 11.25C27.6505 11.25 31.0845 12.7368 33.9512 14.6082C36.8113 16.4753 39.0324 18.6768 40.2366 19.9906C40.3611 20.1265 40.4566 20.2308 40.5363 20.323C40.6052 20.4029 40.6493 20.4589 40.6784 20.5C40.6493 20.5411 40.6052 20.5971 40.5363 20.677C40.4566 20.7692 40.3611 20.8735 40.2366 21.0094C39.1328 22.2136 37.1746 24.1638 34.6531 25.9185L36.2217 27.2583ZM33.5899 28.9558L31.9649 27.5677C29.5513 28.8494 26.8413 29.75 24 29.75C20.3495 29.75 16.9155 28.2632 14.0488 26.3918C11.1888 24.5247 8.96765 22.3232 7.76344 21.0094C7.63895 20.8735 7.5434 20.7692 7.46377 20.677C7.39481 20.5971 7.35069 20.5411 7.32166 20.5C7.35069 20.4589 7.39481 20.4029 7.46377 20.323C7.5434 20.2308 7.63895 20.1265 7.76344 19.9906C8.96765 18.6768 11.1888 16.4753 14.0488 14.6082C14.5669 14.27 15.1035 13.9443 15.6566 13.6377L14.0415 12.2582C13.6696 12.4779 13.3074 12.7038 12.9555 12.9335C9.90566 14.9245 7.55748 17.2554 6.28907 18.6393L6.25518 18.6762L6.25516 18.6762C6.04165 18.909 5.8133 19.1579 5.64852 19.4036C5.44746 19.7033 5.29657 20.0579 5.29657 20.5C5.29657 20.9421 5.44746 21.2967 5.64852 21.5964C5.81331 21.8421 6.04166 22.091 6.25517 22.3238L6.28907 22.3607C7.55748 23.7446 9.90566 26.0755 12.9555 28.0665C15.9987 30.0532 19.8153 31.75 24 31.75C27.5424 31.75 30.821 30.5341 33.5899 28.9558Z" fill="#33363F"/>
<path d="M10 3.41667L42 30.75" stroke="#33363F" stroke-width="2"/>
</svg>
