<?xml version="1.0" standalone="no"?>
<!DOCTYPE svg PUBLIC "-//W3C//DTD SVG 20010904//EN"
 "http://www.w3.org/TR/2001/REC-SVG-20010904/DTD/svg10.dtd">
<svg version="1.0" xmlns="http://www.w3.org/2000/svg"
 width="550.000000pt" height="500.000000pt" viewBox="0 0 1000.000000 750.000000"
 preserveAspectRatio="xMidYMid meet">

<g transform="translate(0.000000,750.000000) scale(0.100000,-0.100000)"
fill="#000000" stroke="none">
<path d="M4207 6660 c-325 -56 -609 -288 -728 -595 -65 -166 -64 -154 -64
-980 0 -695 1 -756 19 -830 28 -122 72 -226 135 -323 133 -201 326 -340 561
-404 l85 -23 785 0 c777 0 786 0 867 22 347 92 606 357 695 709 23 89 23 93
23 854 l0 765 -26 95 c-95 343 -326 581 -666 687 l-88 28 -775 1 c-426 1 -797
-2 -823 -6z m1038 -667 c172 -48 321 -138 446 -271 128 -135 203 -279 241
-460 28 -135 21 -318 -17 -447 -84 -286 -277 -502 -552 -620 -87 -37 -161 -55
-149 -36 13 20 -3 47 -39 64 -39 19 -72 65 -81 115 l-6 32 -87 0 -87 0 -11
-43 c-15 -55 -47 -96 -91 -114 -29 -12 -33 -18 -29 -39 4 -25 3 -25 -32 -19
-47 8 -178 65 -248 107 -144 87 -276 230 -351 381 -125 249 -135 550 -29 797
53 122 94 184 181 277 143 152 300 242 506 289 85 20 347 12 435 -13z"/>
<path d="M4815 5944 c-330 -73 -586 -319 -677 -649 -29 -108 -31 -326 -4 -429
70 -262 236 -471 465 -586 121 -60 134 -63 186 -33 49 27 70 51 80 95 l7 26
-155 4 c-148 3 -157 4 -181 27 l-26 24 0 185 c0 164 2 183 16 178 9 -3 18 -6
20 -6 2 0 4 -52 4 -115 l0 -115 450 0 450 0 0 248 c0 183 -3 253 -12 265 -12
15 -42 17 -263 19 l-250 3 -3 23 -3 22 256 0 257 0 29 -29 29 -29 0 -324 0
-325 -26 -24 c-24 -23 -33 -24 -181 -27 l-155 -4 7 -26 c10 -44 31 -68 80 -95
52 -30 65 -27 186 33 231 116 398 328 465 590 28 109 25 315 -5 425 -84 309
-317 547 -621 635 -101 30 -323 37 -425 14z m-125 -661 c14 -30 16 -31 42 -17
25 13 29 12 64 -21 35 -34 38 -43 20 -85 -5 -11 3 -19 24 -27 28 -11 30 -15
30 -63 0 -48 -2 -52 -31 -62 -22 -8 -28 -15 -23 -27 17 -42 16 -53 -12 -82
-29 -30 -53 -36 -84 -19 -15 8 -20 5 -29 -20 -9 -28 -13 -30 -66 -30 -41 0
-57 4 -60 15 -16 49 -13 47 -43 31 -28 -15 -30 -14 -67 24 -36 37 -38 41 -25
65 15 28 16 26 -22 43 -25 10 -28 17 -28 62 0 45 3 52 28 62 38 17 37 15 22
43 -13 24 -11 28 23 63 34 34 39 36 66 25 32 -12 41 -8 41 17 0 28 23 41 70
38 39 -3 47 -7 60 -35z m-330 -359 c0 -11 5 -14 16 -10 23 9 56 -22 48 -46 -3
-12 0 -18 10 -18 21 0 22 -56 1 -64 -8 -3 -12 -12 -9 -21 9 -21 -14 -45 -42
-45 -13 0 -24 -4 -24 -10 0 -5 -13 -10 -30 -10 -16 0 -30 5 -30 10 0 6 -11 10
-24 10 -28 0 -51 24 -43 44 3 8 -1 17 -9 20 -16 6 -20 66 -4 66 6 0 10 11 10
24 0 28 24 51 45 42 9 -3 18 1 21 9 8 21 64 20 64 -1z"/>
<path d="M4605 5240 c-8 -27 -56 -52 -76 -39 -30 19 -42 11 -35 -26 8 -42 -6
-73 -40 -85 -31 -12 -31 -28 1 -40 32 -12 50 -56 36 -88 -13 -27 6 -40 37 -23
22 12 82 -20 82 -44 0 -22 28 -18 35 5 10 30 60 53 86 39 29 -15 45 2 28 29
-17 27 1 69 36 82 14 5 25 14 25 20 0 6 -11 15 -25 20 -35 13 -52 52 -37 85
10 21 9 27 -2 31 -8 3 -23 1 -33 -4 -25 -13 -61 2 -75 33 -14 30 -34 33 -43 5z
m81 -88 c47 -38 56 -88 24 -139 -32 -53 -113 -61 -161 -17 -41 37 -32 127 15
159 28 20 96 19 122 -3z"/>
<path d="M4584 5095 c-15 -23 -15 -27 0 -50 30 -45 86 -28 86 27 0 49 -59 65
-86 23z"/>
<path d="M4312 4894 c-9 -9 -21 -12 -34 -8 -18 5 -20 3 -15 -16 4 -14 -1 -27
-13 -37 -17 -15 -17 -16 1 -34 10 -10 16 -25 13 -34 -5 -11 1 -15 19 -15 14 0
30 -7 35 -15 7 -14 10 -13 26 4 11 12 25 17 38 13 17 -4 19 -1 14 15 -4 13 0
27 10 38 17 16 17 18 0 27 -13 7 -16 17 -12 34 6 22 4 24 -19 18 -18 -4 -27
-2 -31 10 -8 20 -15 20 -32 0z m53 -44 c27 -29 10 -74 -28 -78 -36 -4 -57 13
-57 49 0 47 53 65 85 29z"/>
<path d="M4304 4829 c-10 -17 23 -46 37 -32 7 7 9 19 6 27 -7 18 -33 21 -43 5z"/>
<path d="M4557 4513 c-11 -11 -8 -68 5 -81 9 -9 120 -12 439 -12 470 0 453 -2
447 62 l-3 33 -441 3 c-242 1 -444 -1 -447 -5z m460 -39 c3 -8 -2 -23 -11 -32
-15 -15 -17 -15 -32 0 -21 21 -11 48 16 48 11 0 23 -7 27 -16z"/>
<path d="M2472 3108 c-9 -9 -12 -180 -12 -708 0 -662 1 -698 18 -713 26 -24
223 -25 246 -1 14 13 16 57 16 328 0 338 5 376 54 440 74 98 268 108 348 19 9
-10 26 -39 37 -63 19 -42 21 -65 21 -370 0 -278 2 -329 16 -348 14 -21 23 -22
129 -22 111 0 115 1 131 25 14 21 15 64 12 367 -4 314 -6 348 -25 405 -55 166
-162 259 -323 281 -138 19 -265 -16 -354 -98 l-46 -43 0 245 c0 176 -3 247
-12 256 -8 8 -51 12 -128 12 -77 0 -120 -4 -128 -12z"/>
<path d="M6572 3100 c-157 -41 -272 -131 -336 -262 -60 -121 -68 -184 -64
-488 4 -253 5 -268 30 -342 60 -180 170 -282 358 -334 86 -24 313 -25 382 -2
l46 16 33 -47 c72 -104 67 -101 204 -101 119 0 145 6 145 35 0 7 -33 60 -74
118 l-75 106 42 63 c86 129 113 285 104 603 -9 283 -39 378 -156 496 -75 75
-162 122 -269 144 -97 21 -280 18 -370 -5z m345 -246 c66 -32 115 -94 139
-179 14 -49 17 -102 18 -280 0 -282 -16 -357 -96 -431 -56 -53 -94 -67 -196
-72 -88 -4 -96 -3 -158 28 -74 36 -112 81 -141 163 -16 45 -18 87 -18 307 0
243 1 258 23 313 39 97 92 146 183 172 77 21 177 13 246 -21z"/>
<path d="M1140 3081 c-5 -11 -10 -60 -10 -109 0 -127 -9 -122 233 -122 l197 0
0 -574 c0 -509 2 -576 16 -590 12 -13 39 -16 128 -16 97 0 115 3 129 18 15 17
17 72 17 590 l0 572 195 0 c245 0 239 -4 233 136 -2 71 -7 97 -18 104 -9 6
-235 10 -562 10 -531 0 -548 -1 -558 -19z"/>
<path d="M8027 3082 c-17 -19 -517 -1346 -517 -1372 0 -33 22 -40 134 -40 84
0 113 4 126 15 9 8 39 74 66 145 l49 130 305 -2 305 -3 48 -125 c27 -69 56
-133 64 -142 22 -25 223 -26 247 -2 9 8 16 20 16 25 0 22 -503 1355 -517 1372
-14 15 -36 17 -163 17 -129 0 -149 -2 -163 -18z m282 -580 c61 -167 111 -305
111 -308 0 -2 -104 -4 -231 -4 -190 0 -230 2 -227 14 12 50 224 614 229 608 4
-4 57 -143 118 -310z"/>
<path d="M4108 2749 c-161 -18 -282 -91 -341 -206 -23 -44 -22 -90 2 -103 22
-11 176 -13 203 -2 9 4 27 23 40 42 32 47 80 78 136 86 65 10 149 -10 183 -42
31 -29 52 -94 47 -144 l-3 -34 -178 -27 c-235 -35 -327 -67 -424 -145 -124
-101 -126 -307 -3 -418 156 -141 424 -141 580 1 l40 35 0 -45 c0 -69 14 -77
126 -77 53 0 104 5 115 10 18 10 19 25 19 384 0 346 -1 379 -20 439 -56 180
-260 276 -522 246z m262 -705 c-27 -124 -115 -195 -243 -195 -116 0 -187 52
-187 136 0 37 6 50 34 79 43 42 100 61 268 90 l133 22 3 -41 c2 -22 -1 -63 -8
-91z"/>
<path d="M5448 2749 c-77 -8 -151 -42 -220 -100 l-47 -39 -3 52 c-3 44 -7 55
-28 66 -33 17 -204 13 -222 -6 -19 -19 -24 -985 -5 -1022 12 -24 17 -25 120
-28 61 -1 115 2 126 8 19 10 20 26 23 343 l3 332 27 57 c53 114 198 159 318
98 45 -23 64 -44 89 -100 19 -42 21 -65 21 -370 0 -278 2 -329 16 -348 14 -20
23 -22 120 -22 58 0 114 5 125 10 18 10 19 25 19 358 0 384 -4 415 -62 524
-76 143 -225 209 -420 187z"/>
<path d="M2652 1153 c-28 -11 -42 -62 -42 -153 0 -88 1 -93 30 -122 22 -22 38
-29 59 -26 16 1 36 -4 45 -11 15 -12 19 -12 33 2 10 10 13 22 8 34 -4 10 -7
65 -6 123 2 100 1 107 -23 133 -24 26 -68 35 -104 20z m66 -55 c19 -19 16
-163 -4 -182 -8 -9 -17 -16 -19 -16 -2 0 -11 7 -19 16 -12 11 -16 36 -16 93 0
74 9 101 35 101 6 0 16 -5 23 -12z"/>
<path d="M2855 1148 c-2 -7 -13 -65 -25 -128 -11 -63 -23 -125 -25 -137 -5
-19 -1 -23 20 -23 14 0 28 7 31 15 4 9 19 15 35 15 19 0 29 -5 29 -15 0 -9 9
-15 25 -15 30 0 30 -3 5 140 -30 171 -26 160 -61 160 -16 0 -32 -6 -34 -12z
m48 -165 c5 -38 3 -43 -15 -43 -18 0 -20 4 -14 38 3 20 6 46 6 57 1 33 17 -3
23 -52z"/>
<path d="M3070 1010 l0 -150 25 0 25 0 0 108 1 107 24 -30 c13 -16 26 -27 28
-25 2 3 11 16 20 30 16 24 17 21 17 -83 l0 -107 30 0 31 0 -3 148 -3 147 -26
3 c-21 2 -32 -4 -49 -28 l-23 -32 -19 31 c-15 23 -27 31 -49 31 l-29 0 0 -150z"/>
<path d="M3340 1152 c0 -5 -11 -69 -25 -143 -14 -74 -25 -137 -25 -141 0 -5
11 -8 25 -8 16 0 25 6 25 15 0 10 10 15 30 15 18 0 33 -6 36 -15 5 -12 54 -23
54 -12 0 2 -11 66 -25 143 -14 76 -25 142 -25 147 0 4 -16 7 -35 7 -19 0 -35
-4 -35 -8z m49 -179 c1 -26 -3 -33 -17 -33 -17 0 -18 5 -8 63 9 55 11 58 17
32 4 -16 7 -45 8 -62z"/>
<path d="M3490 1011 l0 -151 25 0 c24 0 25 2 25 73 l1 72 34 -72 c26 -56 39
-73 54 -73 20 0 21 5 21 150 l0 150 -25 0 c-23 0 -24 -3 -27 -77 l-3 -78 -31
75 c-24 56 -37 76 -53 78 -21 3 -21 0 -21 -147z"/>
<path d="M3725 1138 c-12 -59 -45 -245 -45 -260 0 -13 8 -18 25 -18 16 0 25 6
25 15 0 10 10 15 30 15 20 0 30 -5 30 -15 0 -10 10 -15 29 -15 l28 0 -23 138
c-14 75 -26 143 -29 150 -2 6 -18 12 -34 12 -24 0 -32 -5 -36 -22z m49 -145
c6 -49 5 -53 -14 -53 -19 0 -20 4 -15 38 8 46 16 75 20 70 1 -2 5 -27 9 -55z"/>
<path d="M3902 1153 c-28 -11 -42 -62 -42 -153 0 -88 1 -93 29 -121 38 -38 74
-38 112 0 24 25 29 37 29 80 l0 51 -40 0 c-36 0 -40 -2 -40 -25 0 -16 6 -25
15 -25 20 0 19 -24 -1 -44 -19 -20 -19 -20 -38 0 -23 22 -23 166 0 185 20 16
48 1 52 -30 2 -15 10 -21 28 -21 20 0 24 5 24 30 0 58 -69 97 -128 73z"/>
<path d="M4060 1010 l0 -150 70 0 c68 0 70 1 70 25 0 23 -4 25 -46 25 l-45 0
3 38 c3 36 4 37 46 40 37 3 42 6 42 28 0 22 -4 24 -46 24 -45 0 -45 0 -42 33
3 30 6 32 46 35 37 3 42 6 42 28 0 23 -2 24 -70 24 l-70 0 0 -150z"/>
<path d="M4247 1153 c-4 -3 -7 -71 -7 -150 l0 -143 30 0 30 0 0 107 c0 104 1
107 17 83 9 -14 18 -27 20 -30 2 -2 15 9 28 25 l24 30 1 -107 0 -108 25 0 25
0 0 150 0 150 -29 0 c-22 0 -34 -8 -49 -31 l-19 -31 -22 31 c-21 29 -58 41
-74 24z"/>
<path d="M4480 1010 l0 -150 70 0 c68 0 70 1 70 25 0 23 -4 25 -45 25 l-45 0
0 40 0 40 45 0 c41 0 45 2 45 25 0 23 -4 25 -45 25 -45 0 -45 0 -45 35 0 35 0
35 45 35 41 0 45 2 45 25 0 24 -2 25 -70 25 l-70 0 0 -150z"/>
<path d="M4660 1011 l0 -151 25 0 c24 0 25 2 26 73 l0 72 34 -72 c26 -56 39
-73 54 -73 20 0 21 5 21 150 l0 150 -25 0 c-23 0 -24 -3 -27 -77 l-3 -76 -31
74 c-23 57 -35 75 -52 77 -22 3 -22 2 -22 -147z"/>
<path d="M4840 1135 c0 -21 5 -25 30 -25 l30 0 0 -125 0 -125 25 0 24 0 3 123
3 122 28 3 c21 3 27 9 27 28 0 24 -2 24 -85 24 -84 0 -85 0 -85 -25z"/>
<path d="M5115 1135 c-29 -28 -33 -79 -9 -113 8 -12 33 -31 55 -43 31 -15 40
-25 37 -42 -4 -32 -52 -31 -56 1 -3 16 -10 22 -28 22 -52 0 -17 -91 41 -106
32 -8 77 15 93 49 20 42 4 77 -54 115 -38 26 -49 40 -49 60 0 22 5 27 25 27
21 0 26 -5 28 -32 3 -29 7 -33 34 -33 30 0 30 1 25 36 -13 79 -91 111 -142 59z"/>
<path d="M5260 1157 c0 -2 14 -43 30 -92 20 -58 30 -109 30 -147 0 -55 1 -58
25 -58 24 0 25 2 25 63 0 44 9 90 30 151 l29 87 -27 -3 c-22 -3 -28 -11 -42
-58 l-17 -55 -17 58 c-14 49 -20 57 -41 57 -14 0 -25 -1 -25 -3z"/>
<path d="M5456 1129 c-29 -34 -31 -43 -15 -86 6 -20 28 -42 60 -61 51 -33 61
-55 31 -71 -22 -12 -37 -3 -46 27 -5 15 -15 22 -33 22 -23 0 -25 -3 -19 -32 7
-39 48 -78 81 -78 13 0 37 12 54 26 57 48 38 110 -48 156 -26 15 -32 23 -29
45 6 52 57 39 58 -14 0 -18 6 -23 25 -23 22 0 25 4 25 35 0 80 -93 115 -144
54z"/>
<path d="M5617 1153 c-4 -3 -7 -15 -7 -25 0 -13 8 -18 30 -18 l30 0 0 -125 0
-125 25 0 24 0 3 123 3 122 28 3 c21 3 27 9 27 28 0 23 -2 24 -78 24 -43 0
-82 -3 -85 -7z"/>
<path d="M5807 1153 c-4 -3 -7 -71 -7 -150 l0 -143 75 0 c73 0 75 1 75 25 0
23 -4 25 -45 25 l-45 0 0 40 0 40 45 0 c41 0 45 2 45 25 0 23 -4 25 -45 25
-45 0 -45 0 -45 35 0 35 0 35 45 35 41 0 45 2 45 25 0 24 -2 25 -68 25 -38 0
-72 -3 -75 -7z"/>
<path d="M5990 1010 l0 -150 25 0 25 0 0 108 0 107 23 -29 23 -29 22 29 21 29
1 -107 0 -108 25 0 25 0 0 150 0 150 -30 0 c-16 0 -30 -3 -30 -7 0 -5 -9 -19
-19 -32 l-18 -24 -19 32 c-13 23 -26 31 -46 31 l-28 0 0 -150z"/>
<path d="M6287 1153 c-4 -3 -7 -71 -7 -150 l0 -143 30 0 30 0 0 65 0 65 45 0
c41 0 45 2 45 25 0 23 -4 25 -45 25 -45 0 -45 0 -45 35 0 35 0 35 45 35 41 0
45 2 45 25 0 24 -2 25 -68 25 -38 0 -72 -3 -75 -7z"/>
<path d="M6475 1135 c-23 -22 -25 -31 -25 -128 0 -90 3 -106 20 -125 45 -48
111 -36 136 25 11 26 15 61 12 119 -3 71 -6 86 -27 108 -33 35 -83 35 -116 1z
m80 -125 c0 -95 0 -95 -25 -95 -24 0 -25 2 -28 84 -3 100 0 113 30 109 22 -3
23 -7 23 -98z"/>
<path d="M6650 1010 l0 -150 25 0 c23 0 24 4 27 63 3 59 4 62 28 59 32 -3 40
-18 40 -74 0 -44 2 -48 25 -48 24 0 25 3 25 56 0 30 -4 64 -10 74 -7 12 -5 27
5 47 12 24 13 37 4 62 -14 40 -54 61 -119 61 l-50 0 0 -150z m104 87 c29 -21
16 -51 -22 -55 -29 -3 -32 -1 -32 26 0 44 19 54 54 29z"/>
<path d="M6920 1010 l0 -150 30 0 30 0 0 107 c0 104 1 107 17 83 9 -14 18 -27
20 -30 2 -2 15 9 28 25 l24 30 1 -107 0 -108 25 0 25 0 0 150 0 150 -27 0
c-18 0 -35 -10 -50 -27 l-23 -28 -21 28 c-14 18 -30 27 -50 27 l-29 0 0 -150z"/>
<path d="M7160 1010 l0 -150 70 0 c68 0 70 1 70 25 0 23 -4 25 -45 25 l-45 0
0 40 0 40 45 0 c41 0 45 2 45 25 0 23 -4 25 -45 25 -45 0 -45 0 -45 35 0 35 0
35 45 35 41 0 45 2 45 25 0 24 -2 25 -70 25 l-70 0 0 -150z"/>
<path d="M7340 885 c0 -20 5 -25 25 -25 20 0 25 5 25 25 0 20 -5 25 -25 25
-20 0 -25 -5 -25 -25z"/>
</g>
</svg>
